<svg id="Page-1" xmlns="http://www.w3.org/2000/svg" width="49.39" height="54.987" viewBox="0 0 49.39 54.987">
  <g id="_022---Tape-Measure" data-name="022---Tape-Measure" transform="translate(0 0)">
    <path id="Shape" d="M32.316,1.558A81.111,81.111,0,0,0,21.993,1C9.661,1,0,5.83,0,12V26.659c0,4.933,6.216,9.088,15.372,10.488q-3.839,2.771-8.116,5.712a1.827,1.827,0,0,0-.1,2.938l12.228,9.784a1.844,1.844,0,0,0,2.233.05c2.047-1.491,4.046-3.049,5.992-4.648q2.841-2.338,5.5-4.8c.009-.01.022-.013.03-.023l.006-.011q2.6-2.406,4.989-4.89c.019-.018.045-.026.062-.047s.015-.03.025-.044c1.167-1.218,2.306-2.443,3.381-3.676,3.053-3.5,6.853-7.86,7.577-13.227.739-5.475-.281-13.587-5.584-18.435-3.313-3.039-7.558-3.8-11.277-4.276ZM21.993,2.832c10.928,0,20.161,4.2,20.161,9.164,0,5.939-11.821,9.164-20.161,9.164-10.928,0-20.161-4.2-20.161-9.164S11.065,2.832,21.993,2.832ZM1.833,26.659v-10.2c3.363,3.879,11.027,6.53,20.161,6.53a37.643,37.643,0,0,0,14.1-2.5,188.72,188.72,0,0,1-17.77,14.5V30.324a.916.916,0,0,0-1.833,0v5.132a35.245,35.245,0,0,1-4.582-.911V29.408a.916.916,0,0,0-1.833,0V33.99a22.291,22.291,0,0,1-3.666-1.606V26.659a.916.916,0,1,0-1.833,0v4.519c-1.741-1.358-2.749-2.91-2.749-4.519ZM20.527,54.15,8.294,44.37c1.4-.96,2.893-2,4.445-3.093a3.941,3.941,0,0,0,2.719.578,2.146,2.146,0,0,1,2.581,1.859,3.975,3.975,0,0,0,4.5,3.253,2.164,2.164,0,0,1,2.582,1.868,4.988,4.988,0,0,0,.517,1.388c-1.667,1.344-3.373,2.659-5.114,3.927ZM47.369,24.019a14.055,14.055,0,0,1-1.3,4.17l-1.3-1.833a.917.917,0,1,0-1.494,1.063L45.1,29.985a34.624,34.624,0,0,1-2.947,4.054L39.6,31.123a.916.916,0,1,0-1.38,1.206l2.728,3.127c-.245.283-.488.563-.725.834-.893,1.025-1.833,2.044-2.791,3.058l-3.849-3.3A.916.916,0,1,0,32.4,37.44l3.773,3.238c-1.205,1.233-2.461,2.451-3.751,3.656l-4.33-3.71A.916.916,0,1,0,26.9,42.017l4.17,3.568c-1.283,1.167-2.618,2.309-3.972,3.436a5.339,5.339,0,0,1-.192-.636,3.966,3.966,0,0,0-4.5-3.246,2.173,2.173,0,0,1-2.59-1.876,3.948,3.948,0,0,0-4.5-3.238,4.061,4.061,0,0,1-.825,0C24.925,32.609,37.381,23.023,42.08,16.546a6.993,6.993,0,0,0,1.907-4.45c.048-2.881-1.976-5.167-4.389-6.769a11.777,11.777,0,0,1,2.77,1.857c4.47,4.089,5.733,11.4,5,16.836Z" transform="translate(0 -0.996)" fill="#aac1bb"/>
    <path id="Shape-2" data-name="Shape" d="M22.885,17.777c3.749,0,10.006-1.076,11.618-4.472C35.6,11,33.7,8.632,31.556,7.186A20.937,20.937,0,0,0,24.98,4.453a2.484,2.484,0,0,0-2.066.395,2.527,2.527,0,0,0-.835,1.03C15.714,6.086,11,8.584,11,11.821c0,4.321,7.217,5.957,11.885,5.957Zm6.729-2.932.328-6.512q.306.183.591.375c3.442,2.32,3.37,4.529-.919,6.137ZM23.7,6.857V6.839a.687.687,0,0,1,.284-.5.641.641,0,0,1,.544-.106,24.786,24.786,0,0,1,3.626,1.2l-.4,7.978a20.7,20.7,0,0,1-4.707.535Zm-1.9.867-.586,8.156c-5.05-.365-8.38-2.326-8.38-4.059,0-1.812,3.633-3.84,8.966-4.1Z" transform="translate(-0.92 -1.278)" fill="#aac1bb"/>
    <path id="Shape-3" data-name="Shape" d="M26.916,11a.916.916,0,0,0-.916.916v.916a.916.916,0,1,0,1.833,0v-.916A.916.916,0,0,0,26.916,11Z" transform="translate(-2.174 -1.832)" fill="#aac1bb"/>
    <path id="Shape-4" data-name="Shape" d="M16.489,49.2a.917.917,0,1,0-1.145,1.431L19.926,54.3a.917.917,0,1,0,1.145-1.431Z" transform="translate(-1.254 -5.009)" fill="#aac1bb"/>
  </g>
</svg>
