<?xml version="1.0" encoding="utf-8"?>
<!-- Generator: Adobe Illustrator 24.1.2, SVG Export Plug-In . SVG Version: 6.00 Build 0)  -->
<svg version="1.1" id="Layer_1" xmlns="http://www.w3.org/2000/svg" xmlns:xlink="http://www.w3.org/1999/xlink" x="0px" y="0px"
	 viewBox="0 0 635.8 355.7" style="enableBackground:new 0 0 635.8 355.7;" xml:space="preserve">
<style type="text/css">
	.st0{fill:#F2F6FB;}
	.st1{fill:#1D5B45;}
	.st2{fill:#12382A;}
	.st3{fill:#2C8443;}
	.st4{fill:#6EAF45;}
	.st5{fill:#E1E6F4;}
	.st6{fill:#6776E8;}
	.st7{fill:#C3C9E0;}
	.st8{clip-path:url(#SVGID_2_);}
	.st9{fill:#7263E6;}
	.st10{fill:#4ADEDE;}
	.st11{fill:#FFFFFF;}
	.st12{fill:#9EA9CC;}
	.st13{fill:#FFC655;}
	.st14{fill:#FFAA56;}
	.st15{fill:#FF8A57;}
	.st16{fill:#FFE461;}
	.st17{fill:#252549;}
	.st18{fill:#FFBF9F;}
	.st19{fill:#3B345B;}
	.st20{fill:#5D3C2E;}
	.st21{fill:#26242F;}
	.st22{fill:#7972D3;}
	.st23{fill:#5350CD;}
	.st24{fill:#FF9B80;}
	.st25{fill:#696B84;}
	.st26{fill:#8186AA;}
	.st27{fill:#535777;}
	.st28{fill:#E25247;}
	.st29{fill:#B2322B;}
	.st30{fill:#60A5FC;}
	.st31{fill:#CC60FC;}
</style>
<g>
	<path class="st0" d="M426.3,0c-42.6,0-103.1,10.8-167.8,31.8C142.3,69.4,56.4,125.5,66.6,157.1c4.5,14,27.2,20.8,61.1,20.8
		c7,0,14.5-0.3,22.4-0.9c0.6-0.8,1.2-1.6,1.9-2.5c8.3-11.2,15.2-15.7,21.5-16l0,0c0.3,0,0.6,0,0.9,0c3.7,0.1,7.3,1.4,10.4,3.5
		c3,1.9,7.5,5.3,12.3,9l1-0.2c-0.5-6.9-0.7-13.1-0.3-16.3c0.2-1.2,0.6-2.3,1.3-3.3c-0.6-4.2,6.1-3,2.5-7.1
		c-4.4-4.9,1.6-9.7,4.9-13.5s0.6-7.7,1.2-17s7.8-23,21-28.1c2.2-0.8,4.5-1.3,6.8-1.3c10.2,0,18.4,8,18.4,8s9.4,2.2,10.2,10.6
		s-5.1,19.9-6.9,25.3s1.6,4.8,1.1,8.6s-3.1,3.6-0.6,8.7c0.8,1.6,0.8,3.5-0.1,5c0.9,0.7,1.6,1.5,2.1,2.5c0.2,0.5,0.7,1.8,1.4,3.5
		c10.7-3,21.7-6.2,32.7-9.8V33.3l0,0l0,0l0,0l0,0l0,0l0,0l0,0v-0.1l0,0l0,0l0,0l0,0l0,0c0-2.1,0.7-4.1,1.9-5.7c1.5-2,3.6-3.5,6.1-4
		l0,0c0.6-0.1,1.3-0.2,1.9-0.2H488c-0.1-0.8-0.3-1.5-0.6-2.3c-4.5-14-27.2-20.8-61.1-20.8"/>
	<path class="st0" d="M275.5,206.3L275.5,206.3l-1.5,9.5c-1.7-0.2-3.4-0.5-5-0.9c-0.4-0.1-1.1-1.7-1.8-3.7
		c-3.6,2.2-7.1,4.5-10.3,6.7c0,0.7,0,1.4,0.1,2.1l0,0c0,1,0.1,1.9,0.1,2.6h0.9c1.8-0.1,3.5,0.3,5.1,1.3c1.4,1.1,2.8,2.2,4.1,3.5
		l4.8,1.1L275.5,206.3 M516.4,136.2H514v22.7l0,0c0,5.6-4.6,10.2-10.2,10.2c0,0,0,0,0,0H356.9c-20,7.2-39.6,15.6-58.7,25h40.2
		c0.8,0,1.5,0.7,1.5,1.5c0,0.1,0,0.1,0,0.2l-7.1,40.6l-0.3,1.6c-0.1,0.7-0.7,1.2-1.4,1.2h-14.9l4.2,2.4l19.5,29.7l0,0
		c0,0,7.2,2.5,15.1,5.6l0,0c3,1.2,6.1,2.4,9,3.7c15.5-3.7,31.6-8.2,48-13.5c99-32.1,171.6-81.6,162.2-110.7
		C569.9,142.9,548.3,136.2,516.4,136.2"/>
	<path class="st0" d="M136.4,192.8c-4,1.1-8.1,2.4-12.2,3.7c-49.5,16-86.1,40-81.7,53.6c1.9,6,11.7,9,26.3,9
		c11.1-0.2,22.1-1.4,32.9-3.5c3.3-12.6,8.4-24.7,15.2-35.9C125.9,205.1,131.4,198.4,136.4,192.8"/>
	<path class="st0" d="M545.4,79c-9.3,0.1-18.5,1.7-27.3,4.6c-1.3,0.4-2.7,0.9-4,1.4v45.3c6-0.8,12-2.1,17.8-4
		c25.3-8.2,42.7-24.4,38.9-36.1C568.4,82.9,558.5,79.1,545.4,79"/>
	<path class="st0" d="M531.9,247c-13.7,0-32,3.1-51.3,9.4c-37.7,12.2-65.2,31.6-61.4,43.4c1.9,5.7,10.8,8.6,23.9,8.6
		c13.7,0,32-3.2,51.3-9.4c37.7-12.2,65.2-31.6,61.4-43.4C554,249.9,545,247,531.9,247"/>
	<path class="st1" d="M516,145.9c8.6-4.8,14.5-13.2,16.4-22.8c3.1-16.3,7.1-36.1,22.2-22.3s1.4,53.2-22.2,62.9l-23.6,9.7
		C508.8,173.4,508.8,147.3,516,145.9z"/>
	<path class="st2" d="M500.8,171.1c0,0,23.3-14.7,35.9-28.4s9.6-31.7,9.6-31.7c2.7,11.1,0.4,22.9-6.4,32.1
		C528.3,158.8,500.8,171.1,500.8,171.1z"/>
	<path class="st3" d="M510.1,141.8c5.2-2.9,8.8-7.9,10-13.7c1.9-9.7,4.3-21.6,13.6-13.4s0.8,31.9-13.6,37.7l-14.4,5.8
		C505.7,158.3,505.7,142.6,510.1,141.8z"/>
	<path class="st1" d="M500.8,156.9c0,0,14.2-8.8,22-17.1s5.9-19,5.9-19c1.7,6.7,0.2,13.8-4,19.2
		C517.6,149.6,500.8,156.9,500.8,156.9z"/>
	<path class="st4" d="M520.5,162.8c0,0,11.7-6.6,33.7-20.4s26.4-21.9,25-9s-7.4,27.1-29.2,35.7C528.1,177.7,498.5,175.9,520.5,162.8
		z"/>
	<path class="st3" d="M520.1,171.9c0,0,8-1.6,26-14.4s21.2-15.7,21.2-15.7s-18.7,16-27.5,22.3S520.1,171.9,520.1,171.9z"/>
	<path class="st3" d="M510.1,73.6c0,0,21.2-58.1,42.7-47.5S505,87.6,505,87.6L510.1,73.6z"/>
	<path class="st1" d="M505.7,85.8c0,0,35.8-47.3,34.2-45.5S515.4,80.4,505.7,85.8z"/>
	<path class="st4" d="M503.5,90.6c0,0,31.7-40.8,44.5-29.9s-26.8,32.1-38.7,34.5S503.5,90.6,503.5,90.6z"/>
	<path class="st3" d="M508.8,92.4c0,0,5-6.8,17.4-15.2s16.8-8.7,16.8-8.7S515.7,84.6,508.8,92.4z"/>
	<path class="st3" d="M78,340.5c0,0-12.6,4.3-18.8-5.7c-6.2-10,0.3-12.3-10.1-15.9c-10.4-3.6-12.9-5.9-14.9-13s-12.9-5.5-17-14
		c-4.1-8.5,2-5.8-6.3-17.3c-8.3-11.5-13.5-18.2-9.6-21c4-2.8,12.2-2.9,17.9,5.7c5.7,8.6,10.5,13.4,17.3,13.2
		c6.8-0.3,7.4,15.5,15.7,15.2c8.3-0.3,15.1,3.7,17.9,11.4c2.8,7.8,13.4,5.7,18.6,14.1c3.3,5.5,6,11.4,8,17.6L78,340.5z"/>
	<path class="st1" d="M18.3,270.2l0.9,1c3.6,4,17.8,19.7,35.3,36.1c20.3,18.9,35,27.3,35,27.3l-2.4,1.2c0,0-10.4-5.6-30.4-24.4
		C43.1,298.4,30.3,284.6,18.3,270.2z"/>
	<path class="st4" d="M76.6,330.5c0,0-17.1-0.9-19.7-15.8c-2.7-14.9,6.2-14.6-4.5-23.8c-10.7-9.2-12.6-13.1-11.6-22.7
		S27.9,255.6,27,243.4s5.2-6,0.7-23.6s-7.5-28.2-1.5-29.6c6.1-1.5,15.9,2.4,18.6,15.3s6.1,21,14.4,23.9s1.5,22.1,11.6,25.6
		c10.1,3.5,16.3,11.5,15.9,22.1c-0.4,10.6,13.3,13.2,15.6,25.7c1.4,8.2,1.8,16.5,1.2,24.8L76.6,330.5z"/>
	<path class="st3" d="M38.5,218.1l0.6,1.6c2.4,6.5,12,32.1,25.2,59.9c15.3,32.2,28.9,49.2,28.9,49.2l-3.4,0.4
		c0,0-9.9-11.7-24.9-43.7S38.5,218.1,38.5,218.1z"/>
	<path class="st3" d="M106.1,327.4c0,0-14.1-2.8-11.7-12.6s2.2-17.3-3-22.7c-5.2-5.4-8.8-13.2-6-22.7s2-11.4-2.3-21.1
		c-4.3-9.6-9.3-24.3,2.4-27.5s14.5,22.6,19.9,29c5.4,6.4,17.8,9,19.5,21s-2.4,16.2,8.6,22.3c11,6.1,7.7,25.7,4.5,30.7L106.1,327.4z"
		/>
	<path class="st1" d="M94.6,244.2c0,0,14.3,51.2,20.1,63.3c5.8,12.1,8.8,18,8.8,18l-3.5,0.4C120,325.9,96.7,265.6,94.6,244.2z"/>
	<path class="st5" d="M514.1,33.3v125.6c0,5.6-4.6,10.2-10.2,10.2c0,0,0,0,0,0H304c-5.6,0-10.2-4.5-10.2-10.2c0,0,0,0,0,0V33.3
		c0-5.6,4.6-10.2,10.2-10.2c0,0,0,0,0,0h199.9C509.5,23.1,514.1,27.7,514.1,33.3C514.1,33.3,514.1,33.3,514.1,33.3"/>
	<path class="st6" d="M514.1,33.3v10.3H293.8V33.3c0-5.6,4.6-10.2,10.2-10.2c0,0,0,0,0,0h199.9C509.5,23.1,514.1,27.7,514.1,33.3
		C514.1,33.3,514.1,33.3,514.1,33.3"/>
	<path class="st7" d="M301.8,51.2v110.4c0,1.4,1.1,2.5,2.5,2.6c0,0,0,0,0,0h97c1.4,0,2.5-1.1,2.6-2.5c0,0,0,0,0,0v-0.8
		c0-1.4,1.1-2.6,2.6-2.6h107.6v0.6c0,5.6-4.6,10.2-10.2,10.2c0,0,0,0,0,0H304c-5.6,0-10.2-4.5-10.2-10.2c0,0,0,0,0,0V44.6
		c0.5-0.6,1.2-1,2-1h218.2v5.1H304.4C303,48.7,301.8,49.8,301.8,51.2C301.8,51.2,301.8,51.3,301.8,51.2"/>
	<g>
		<defs>
			<path id="SVGID_1_" d="M300.7,23.7L300.7,23.7c-4.1,1.4-6.9,5.3-6.9,9.7v10.3h220.3v-5.5H303.7c-1.6,0-2.9-1.3-2.9-2.9
				L300.7,23.7"/>
		</defs>
		<clipPath id="SVGID_2_">
			<use xlink:href="#SVGID_1_"  style="overflow:visible;"/>
		</clipPath>
		<g class="st8">
			<rect x="293.8" y="23.7" class="st9" width="220.3" height="19.9"/>
		</g>
	</g>
	<path class="st10" d="M446.7,26.6H334.9c-1.2,0-2.1,0.9-2.1,2.1c0,1.2,0.9,2.1,2.1,2.1c0,0,0,0,0,0h111.7c1.2,0,2.1-0.9,2.1-2.1
		S447.8,26.6,446.7,26.6C446.7,26.6,446.7,26.6,446.7,26.6"/>
	<path class="st10" d="M490.4,26.1h-32c-1.3,0-2.3,1-2.3,2.3c0,0,0,0,0,0v0.2c0,1.3,1,2.3,2.3,2.3h32c1.3,0,2.3-1,2.3-2.3v-0.2
		C492.7,27.1,491.7,26.1,490.4,26.1L490.4,26.1"/>
	<path class="st11" d="M334.8,74.9h146.1c2.6,0,4.6,2.1,4.6,4.6v13.9c0,2.6-2.1,4.6-4.6,4.6H334.8c-2.6,0-4.6-2.1-4.6-4.6V79.5
		C330.2,76.9,332.2,74.9,334.8,74.9z"/>
	<path class="st11" d="M334.8,108.6h146.1c2.6,0,4.6,2.1,4.6,4.6v13.9c0,2.6-2.1,4.6-4.6,4.6H334.8c-2.6,0-4.6-2.1-4.6-4.6v-13.9
		C330.2,110.7,332.2,108.6,334.8,108.6z"/>
	<path class="st7" d="M466.4,89.6H349.7c-1.6,0-2.9-1.3-2.9-2.9c0-1.6,1.3-2.9,2.9-2.9h116.7c1.6,0,2.9,1.3,2.9,2.9
		C469.3,88.3,468,89.6,466.4,89.6z"/>
	<path class="st7" d="M371.8,121c0,1.7-1.3,3-3,3s-3-1.3-3-3s1.3-3,3-3S371.8,119.4,371.8,121z"/>
	<path class="st7" d="M383,121c0,1.7-1.3,3-3,3s-3-1.3-3-3s1.3-3,3-3S383,119.4,383,121z"/>
	<path class="st7" d="M394.2,121c0,1.7-1.3,3-3,3s-3-1.3-3-3s1.3-3,3-3S394.2,119.4,394.2,121z"/>
	<path class="st7" d="M405.4,121c0,1.7-1.3,3-3,3s-3-1.3-3-3s1.3-3,3-3S405.4,119.4,405.4,121z"/>
	<path class="st7" d="M416.7,121c0,1.7-1.3,3-3,3s-3-1.3-3-3s1.3-3,3-3S416.7,119.4,416.7,121z"/>
	<path class="st7" d="M427.8,121c0,1.7-1.3,3-3,3s-3-1.3-3-3s1.3-3,3-3S427.8,119.4,427.8,121z"/>
	<path class="st7" d="M439,121c0,1.7-1.3,3-3,3s-3-1.3-3-3s1.3-3,3-3S439,119.4,439,121z"/>
	<path class="st7" d="M450.2,121c0,1.7-1.3,3-3,3s-3-1.3-3-3s1.3-3,3-3S450.2,119.4,450.2,121z"/>
	<path class="st5" d="M635.8,337.9c0,9.9-131.5,17.9-293.7,17.9s-293.7-8-293.7-17.9S179.9,320,342.1,320S635.8,328,635.8,337.9z"/>
	<path class="st12" d="M397.8,333.4c0,6.3-62.5,11.4-139.5,11.4s-139.5-5.1-139.5-11.4c0-6.3,62.5-11.4,139.5-11.4
		S397.8,327.2,397.8,333.4z"/>
	<path class="st12" d="M574.3,330.3c0,2.9-29.7,5.2-66.4,5.2s-66.4-2.3-66.4-5.2s29.7-5.2,66.4-5.2S574.3,327.4,574.3,330.3z"/>
	<path class="st13" d="M371.9,310.5c-4.5,19.8-30.7,25.5-91.6,26.6c-60.9,1.1-125.5-1.8-160.8-17.1s-20.1-72.2-2.6-100.4
		s21.5-26.9,35-45c8.3-11.2,15.2-15.7,21.5-16c3.9-0.3,7.6,1.1,11.3,3.5c9.5,6.1,34.9,27.4,34.9,27.4s79.6,75.1,113.2,84.2
		c17.9,4.9,29.1,9.4,35,15.6C372.9,294.6,374,301.3,371.9,310.5"/>
	<path class="st14" d="M215.8,273.3c-0.3,0-0.5,0-0.8,0.1c-1.6,0.3-5.5,0.8-10,1.3c6.4,1.5,13,2.6,19.5,3.5
		C225.2,276.6,219.3,273.3,215.8,273.3 M199.9,190.4c-6.3,2.5-19.4,11.7-29.5,45.9c-5.8,19.4,7.5,30,26.3,36.1c2.5-0.5,5-0.8,7-1
		c8.8-0.9-3.3-0.9-15-8.6c-11.7-7.7-6.2-23.5-6.2-23.5c3.3,14.8,7.7,13.3,12.8,16.3c0.5,0.4,1.1,0.6,1.7,0.6c2.4,0-0.2-7.3,2-19.9
		c1-4.8,2.5-9.4,4.7-13.7c0-1,0.3-2.4,0.4-4c0.1-0.9,0.1-2.2,0.1-3.5c0-3.7-0.2-8.3-0.2-8.8l0,0l0,0l-0.7-0.2
		c-0.7-0.2-1.1-0.1-1.6-2.4c-0.2-0.8-0.9-6.2-1.8-13.2"/>
	<path class="st15" d="M371.9,310.5c-4.5,19.8-30.7,25.5-91.6,26.6c-60.9,1.1-125.5-1.8-160.8-17.1s-20.1-72.2-2.6-100.4
		s21.5-26.9,35-45c8.3-11.2,15.2-15.7,21.5-16c-7.4,5-20,15.3-24.1,28.7c-5.8,19.3-15.1,30.9-29.5,43.8s-15.7,52.5-2.9,68.6
		c12.8,16,52.9,24.4,104.3,29.5c51.4,5.1,137.5,2,142.8-17.9c1.8-7.2,3.1-14.5,3.8-21.9C372.9,294.7,374,301.3,371.9,310.5"/>
	<path class="st15" d="M182.6,239.2c0,0-5.5,15.9,6.2,23.5c11.7,7.7,23.7,7.7,15,8.6c-8.8,0.9-25.9,4.9-18.6,4.9s26-2.2,29.9-2.9
		c3.9-0.7,13.1,4.7,8,5.5c-5.1,0.7-7.3,6.9-7.3,6.9s6.3-7.2,19.7-3.8c13.5,3.4,11.3,0.8,18.9,6.5c7.6,5.7,12.4,7.9,7.3,2.6
		s-9.5-8.9-7.3-7.1c0.9,0.8,7.3,0.8,15.5,0.7c11,0,25.4-0.1,34.6,1.8c16.2,3.3,33,19.2,33,19.2l-17.1-23.1
		c0,0-110.5-23.5-114.9-34.5c-4.4-11,8.8-42.5,8.8-42.5s-12.7,16-15.3,30.8s1.4,22.2-3.7,19.2C190.2,252.6,185.9,254,182.6,239.2"/>
	<path class="st16" d="M123.9,250.7c0,0-20.9,32.1,22,51.3c42.9,19.2,72.7,16.8,73.8,15.3s5.8-5.5-2.1-11.8
		c-7.9-6.2-62.3-15.5-69.6-29.6S137.5,240,123.9,250.7z"/>
	<path class="st16" d="M232.7,309.2c0,0,67.5-2.1,66.5,6.1s-1,9.7-24.6,9.7S215.9,316.2,232.7,309.2z"/>
	<path class="st17" d="M253.9,92.4c0,0-12.1-11.9-25.3-6.8s-20.4,18.8-21,28.1s2.1,13.1-1.2,17s-9.3,8.6-4.9,13.5s-6.2,2.2-1.1,10.5
		s53.4-0.4,53.4-0.4s6.4-3.8,3.8-8.9s0.1-4.9,0.6-8.7s-3-3.2-1.1-8.6s7.8-16.9,6.9-25.3S253.8,92.5,253.9,92.4"/>
	<path class="st18" d="M221.1,141.7c0,0,1.8,0.1,1.6-2.2s-1.2-1.1,2.3-6.6s2.5-6.2,1.2-9.3s4.1-5.3,7.2-9.8s7.1-10,10.5-13.1
		s6.6-3.2,8.4-2.3c1.1,0.6,2,1.7,2.4,2.9c0,0-0.5,19.8-4.6,27.1s-7.1,7.5-10.7,6.4c0,0-1.3,6.3-0.5,8.7s8.7,5.6,4.1,12
		s-16.8,9.6-21.1,2.4S221.1,141.6,221.1,141.7"/>
	<path class="st18" d="M366.6,300.6c0,0,10.9,2.4,14.9,4.4s9.1,2.7,11.5-0.7s2-5.8,5.9-9c3.9-3.2,12.8-7.8,11.4-11.1
		c-1.4-3.3-4.4-2.6-6.9-0.1c-2.5,2.5-14,4.5-16.1,5.5s-9.3,1.1-10.8,1.1s-8.8-2.6-8.8-2.6L366.6,300.6"/>
	<path class="st18" d="M352.3,316.3c0,0,9,6.7,10.2,11s4.3,8.5,8.4,7.9c4.1-0.6,5.6-2.6,10.6-1.8c5,0.7,14.5,4,15.9,0.7
		c1.5-3.3-1.1-5-4.6-5.1c-3.5-0.1-12.9-7.2-15.1-8s-10.1-5.5-11.1-6.6c-1-1.1-4.4-5.8-4.4-5.8L352.3,316.3z"/>
	<path class="st19" d="M371.9,302.5c-0.4,1-0.9,1.9-1.5,2.8c-1.4,1.6-8.5-3-8.9-3.3l0,0c0.5,0.5,4.4,4.7,5.1,7.2l0,0
		c0.7,2.8-14.8,10.2-17.7,10.8s-24.1-29-24.1-29s-24.1-7.3-26.8-8.6c-1.3-0.6-13.3-0.6-25.2-0.5l0,0c-12.8,0.2-25.6,0.5-25.6,0.5
		s-6.4-2.2-12.8-4.7S204,268,204,268s-4.6-3.6-4.6-18.2c0-14.6,8-28.8,8-28.8l12.1,0.9l35,2.5l59.6,13.5l6.4,3.6l19.5,29.7
		c0,0,7.2,2.5,15.1,5.6c9.3,3.6,19.7,8.1,20.5,10C376.6,289.7,373.9,298,371.9,302.5"/>
	<path class="st20" d="M323.7,290.7l1.1,0.3l0,0L323.7,290.7 M304.7,284.7l0.3,0.1L304.7,284.7L304.7,284.7"/>
	<path class="st21" d="M248,250.7c0,0,26.1,7.5,40.9,10.4c14.8,2.9,19.7,9.1,21,17.3c0.9,5.6-1.9,6.5-3.7,6.5c-0.5,0-1-0.1-1.4-0.2
		l0.3,0.1l18.8,5.8l1.1,0.3c-0.5-0.6-21.5-27.7-23-29.2S248,250.7,248,250.7"/>
	<path class="st21" d="M339.9,271.3l21.5,30.6l0,0c0.3,0.2,5.6,3.6,8,3.6c0.4,0,0.7-0.1,1-0.3c0.6-0.9,1.1-1.8,1.5-2.8
		c-3.4-1.7-6.3-4.1-8.6-7c-3.5-4.9-6.3-12.3-8.2-18.5l0,0C347.2,273.8,340,271.3,339.9,271.3"/>
	<path class="st21" d="M205.4,225.1c-2.4,5.3-6,14.9-6,24.7c0,14.6,4.6,18.2,4.6,18.2s24,7.1,30.4,9.7s12.8,4.7,12.8,4.7
		s12.8-0.3,25.6-0.5c-20.3-2.7-47.5-12.6-55.5-28.3c-4-7.9-2.1-18.9,0.8-27.8C212,225.6,206.9,225.4,205.4,225.1"/>
	<path class="st18" d="M264.5,202.5c0,0,3.3,12,4.5,12.4c1.6,0.4,3.3,0.7,5,0.9l2.4-14.6l-1.6-2.2
		C274.8,199,262.9,196.9,264.5,202.5"/>
	<path class="st9" d="M275.7,199c0,0.6-1.2,1.2-2.9,1.8l0,0c-3.3,1.1-8.4,2-9.1,1.7c-1.1-0.5-4.8-13.6-4.8-13.6s0,0.2-0.1,0.6l0,0
		c-0.1,0.3-0.1,0.8-0.2,1.3c-0.3,2.3-0.9,6.6-1.4,11.7c-0.2,2.1-0.3,4.4-0.3,6.8c0,3.9,0.1,7.9,0.2,10.8c0.1,1.8,0.1,3.1,0.1,3.7
		c-0.1,2.1-5.3,2.9-16.4,2.6S207,225.6,205,225s-1.1-2.9-0.9-6.5s-0.1-12.4-0.1-12.4l-0.7-0.2c-0.7-0.2-1.1-0.1-1.6-2.4
		s-5.4-39.1-3.9-49s23.3-12.9,23.3-12.9c1.3,2,2.7,4,4.2,5.8c2.2,2.6,10.6,7.6,11.3,7.6s2.2-1.2,3.5-5.2c0.9-2.2,0.4-4.7-1.3-6.5
		c2.2,0.1,4.4,0.5,6.6,1.1c4,1.1,12.7,4.7,14.3,8.5S275.5,197.3,275.7,199"/>
	<path class="st22" d="M258.5,190.8c-0.3,2.3-0.9,6.6-1.4,11.7c-0.2,2.1-0.3,4.4-0.3,6.8L258.5,190.8"/>
	<path class="st23" d="M216,169.1c0,0,2.9,29.4,2.9,31.7c0,1.9-1,2.1-1.3,2.1h-0.1c0,0.2,0.9,8.6,2.1,9.1s32.8,10.8,34.3,10.8
		c0.6,0,1.8-0.2,3.2-0.3c0-0.7-0.1-1.6-0.1-2.6l0,0c-6.9-1.3-13.7-3-20.4-5.1c-10.8-3.6-17.5-7.1-16.7-10c0.6-2,9.3-2.8,17.1-2.8
		c3.3,0,6.5,0.1,8.8,0.4c4.5,0.4,8.6,2.9,10.9,6.8l0,0c0-2.4,0.1-4.7,0.3-6.8c0.5-5.1,1.1-9.4,1.4-11.7l0,0l0.9-9.4
		c0,0-3.4,5.5-8.1,7c-2.1,0.7-6.5,1.1-11.3,1.1c-6.1,0-12.7-0.7-15.9-2.5C218.3,184,216,169.2,216,169.1"/>
	<path class="st23" d="M204,206.3c0,0.5,0.2,5,0.2,8.8c0,1.4,0,2.6-0.1,3.5c-0.1,1.8-0.4,3.2-0.4,4.3s0.3,1.9,1.3,2.2
		c1.5,0.5,15.8,0.8,27.2,1.1c-5.5-1-11.2-2-14.9-3c-8.3-2.4-10.1-3.9-11.1-6.5S204.1,206.9,204,206.3"/>
	<path class="st18" d="M204,206.2c0,0,3.3-0.2,6.8-0.9c2.3-0.5,4.6-1.3,6.7-2.4c0,0,0.9,8.6,2.1,9.1s32.8,10.8,34.3,10.8
		s6.2-1.1,9.2,1s8.4,7.8,8.4,7.8s0.3,4.7-2,4.7s-2.7-5.3-8.5-4.2c-2.3,0.4-4.8,1.4-7.2,0.9c-2.5-0.7-4.9-1.9-7-3.5
		c-2.9-2.1-21.2-4-29.4-6.5s-10.1-3.9-11.1-6.5S204,206.3,204,206.2"/>
	<path class="st23" d="M254.4,164.7l5,16.7l0,0l-0.7,8c0-0.4,0.1-0.6,0.1-0.6s3.7,13.1,4.8,13.6c0.2,0,0.3,0.1,0.5,0.1
		c2.9-0.2,5.8-0.8,8.6-1.7c-1-0.2-2.4-0.4-4.2-0.7c-4.2-0.7-6.6-10.7-6.6-15.5S254.9,165.6,254.4,164.7"/>
	<path class="st9" d="M219.1,149.4c-1.3,0-2.1,0.9-1.8,3.4c0,0,5.4,19.9,18.4,21.6c0.5,0.1,1,0.1,1.5,0.1c11.6,0,13-18.4,12-21.7
		c-0.5-1.7-1.1-2.4-2-2.4s-2.1,0.9-3.8,2.4c-2.3,2.1-5.6,4.3-8.8,4.3c-1.1,0-2.1-0.3-3.1-0.8C228.7,154.8,222.3,149.4,219.1,149.4"
		/>
	<path class="st11" d="M361.5,302c0.5,0.5,4.4,4.7,5.1,7.2C364.7,306.9,363,304.5,361.5,302z"/>
	<path class="st24" d="M239.4,134.7c0,0-4.8-2.4-6.8-3.6c-0.8-0.5-1.5-0.9-2.4-1.3c0,0,4.8,11.9,5.8,10.8S239.4,134.7,239.4,134.7z"
		/>
	<path class="st25" d="M339.9,195.8l-7.1,40.6l-0.3,1.6c-0.1,0.7-0.7,1.2-1.4,1.2h-87.7c-0.8,0-1.4-0.6-1.4-1.4c0,0,0,0,0,0l0,0
		c0-0.8,0.6-1.5,1.5-1.5h25.9c0.7,0,1.3-0.5,1.4-1.2l6.5-39.8c0.1-0.7,0.7-1.2,1.4-1.2h59.8c0.8,0,1.5,0.7,1.5,1.5
		C339.9,195.7,339.9,195.7,339.9,195.8"/>
	<path class="st26" d="M308.7,214.9c0,2-0.9,3.7-2,3.7s-2-1.7-2-3.7s0.9-3.7,2-3.7S308.7,212.9,308.7,214.9z"/>
	<path class="st27" d="M280.5,194.1h-1.8c-0.7,0-1.3,0.5-1.4,1.2l-1,5.9l-0.2,1.5l-4.6,28.9l-0.6,3.5c-0.1,0.7-0.7,1.2-1.4,1.2
		h-25.9c-0.8,0-1.5,0.7-1.5,1.5l0,0c0,0.8,0.6,1.4,1.4,1.4c0,0,0,0,0,0h87.6c0.7,0,1.3-0.5,1.4-1.2l0.3-1.6h-55.9
		c-1.6,0-2.9-1.3-2.9-2.9c0-0.2,0-0.3,0-0.5L280.5,194.1"/>
	<path class="st15" d="M565.5,278.2v8.8c0,0.8-0.7,1.5-1.5,1.5l0,0H461.7c-0.8,0-1.5-0.7-1.5-1.5l0,0v-8.8c0-0.8,0.7-1.5,1.5-1.5
		l0,0h102.4C564.9,276.7,565.5,277.4,565.5,278.2L565.5,278.2z"/>
	<path class="st28" d="M565.5,283.8v3.2c0,0.8-0.7,1.5-1.5,1.5l0,0H461.7c-0.8,0-1.5-0.7-1.5-1.5l0,0v-8.8c0-0.8,0.7-1.5,1.5-1.5
		l0,0h5.4v4.1c0,1.6,1.3,2.9,2.9,2.9H565.5z"/>
	<path class="st28" d="M476.3,288.4l-11.1,42.8c-0.3,1.1-1.1,2-2.3,2.4c-0.6,0.2-1.2,0.2-1.8,0.1c-1.5-0.3-2.6-1.7-2.7-3.3
		c0-0.3,0-0.5,0.1-0.8l9-36.5l1.1-4.6L476.3,288.4z"/>
	<path class="st29" d="M476.3,288.4l-11.1,42.8c-0.3,1.1-1.1,2-2.3,2.4c4.8-15.2,8.5-40.6,8.5-40.6h-3.7l1.1-4.6L476.3,288.4z"/>
	<path class="st28" d="M547.8,288.4l11.1,42.8c0.3,1.1,1.1,2,2.3,2.4c0.6,0.2,1.2,0.2,1.8,0.1c1.6-0.3,2.7-1.7,2.7-3.3
		c0-0.3,0-0.5-0.1-0.8l-9-36.5l-1.1-4.6L547.8,288.4z"/>
	<path class="st29" d="M547.8,288.4l11.1,42.8c0.3,1.1,1.1,2,2.3,2.4c-4.8-15.2-8.5-40.6-8.5-40.6h3.8l-1.1-4.6L547.8,288.4z"/>
	<path class="st1" d="M501.3,268.3c0,0-5.6-0.6-5.8-4.3c-0.3-3.7-2.1-2.9-4.1-2.8c-1.5,0.2-2.9-0.9-3.1-2.4c0-0.4,0-0.7,0.1-1.1
		c0.4-2.2-2.9-4.1-1-5.1s3.4-0.9,4.4,0.9s3.1,2.3,5.6,1.3s4-0.5,3.3,2.2c-0.8,2.8,3.3-1,4.5,4S501.3,268.3,501.3,268.3z"/>
	<path class="st3" d="M509.8,267.4c0,0-4.8-5.5-3.3-8.4s4.3-0.7,5-4c0.7-3.3,1.6-4.5,4.5-3.9s1.1-4.5,5-3.6s2.6,4,0,5.8
		s2.8,4.4-1.1,6.1c-3.9,1.7-6.5,0.2-5.1,2.7c1.4,2.4-0.8,5-2.6,5.3C510.5,267.7,509.8,267.4,509.8,267.4z"/>
	<path class="st4" d="M503.9,266.2c0,0-4.6-1.3-3.2-5.4s-4.6-4-3.2-7.2c1.5-3.2,0.2-4.3-1.1-5.2s0.7-3.5,3.7-2.3s0.4,6,4.2,6.6
		s4.3,2.8,3.4,4.7c-0.8,1.9,4,2.4,3.8,5.7C511.3,266.4,503.9,266.2,503.9,266.2z"/>
	<path class="st7" d="M518.8,270.6L518.8,270.6c0,0.6-0.1,1.2-0.3,1.8c-0.8,2.5-3.1,4.2-5.8,4.3h-13.9c-3.4,0-6.1-2.7-6.1-6.1l0,0
		l0,0c0-2.5,1.5-4.7,3.8-5.6c0.7-0.3,1.5-0.4,2.3-0.4h13.9C516.1,264.5,518.8,267.3,518.8,270.6z"/>
	<path class="st12" d="M518.6,272.5c-0.8,2.5-3.1,4.2-5.8,4.3h-13.9c-3.4,0-6.1-2.7-6.1-6.1l0,0l0,0c0-2.5,1.5-4.7,3.8-5.6
		c0.3,0.7,0.5,1.4,0.5,2.2c0,2.9,2.4,5.3,5.3,5.3L518.6,272.5z"/>
	<path class="st5" d="M414,161.5h109.6c3.2,0,5.8,2.6,5.8,5.8v52.1c0,3.2-2.6,5.8-5.8,5.8H414c-3.2,0-5.8-2.6-5.8-5.8v-52.1
		C408.2,164.1,410.8,161.5,414,161.5z"/>
	<path class="st9" d="M529.5,167.3v4.6H408.2v-4.6c0-3.2,2.6-5.8,5.8-5.8c0,0,0,0,0,0h109.6C526.9,161.5,529.5,164.1,529.5,167.3
		C529.5,167.3,529.5,167.3,529.5,167.3L529.5,167.3z"/>
	<path class="st7" d="M447.1,186.4h44c0.9,0,1.6,0.7,1.6,1.6v2.8c0,0.9-0.7,1.6-1.6,1.6h-44c-0.9,0-1.6-0.7-1.6-1.6V188
		C445.5,187.1,446.2,186.4,447.1,186.4z"/>
	<path class="st10" d="M433.6,197.5h10.3c0.9,0,1.6,0.7,1.6,1.6v13.7c0,0.9-0.7,1.6-1.6,1.6h-10.3c-0.9,0-1.6-0.7-1.6-1.6V199
		C432,198.2,432.7,197.5,433.6,197.5z"/>
	<path class="st30" d="M454.3,197.5h10.3c0.9,0,1.6,0.7,1.6,1.6v13.7c0,0.9-0.7,1.6-1.6,1.6h-10.3c-0.9,0-1.6-0.7-1.6-1.6V199
		C452.7,198.2,453.4,197.5,454.3,197.5z"/>
	<path class="st31" d="M474.9,197.5h10.3c0.9,0,1.6,0.7,1.6,1.6v13.7c0,0.9-0.7,1.6-1.6,1.6h-10.3c-0.9,0-1.6-0.7-1.6-1.6V199
		C473.4,198.2,474.1,197.5,474.9,197.5z"/>
	<path class="st9" d="M495.6,197.5h10.3c0.9,0,1.6,0.7,1.6,1.6v13.7c0,0.9-0.7,1.6-1.6,1.6h-10.3c-0.9,0-1.6-0.7-1.6-1.6V199
		C494,198.2,494.7,197.5,495.6,197.5z"/>
	<path class="st7" d="M417.1,219.1h112.4v0.3c0,3.2-2.6,5.8-5.8,5.8c0,0,0,0,0,0H414c-3.2,0-5.8-2.6-5.8-5.8c0,0,0,0,0,0v-47
		c0.3-0.3,0.7-0.4,1.1-0.4h118.3c1-0.1,1.9,0.7,2,1.7c0.1,1-0.7,1.9-1.7,2c-0.1,0-0.2,0-0.3,0H417.1c-1,0-1.8,0.8-1.8,1.8v39.9
		C415.3,218.3,416.1,219.1,417.1,219.1z"/>
	<path class="st10" d="M528.6,164.2H409.1c1.1-1.7,2.9-2.7,4.9-2.7h109.6C525.7,161.5,527.5,162.5,528.6,164.2z"/>
</g>
</svg>
